<?xml version="1.0" standalone="no"?>
<!DOCTYPE svg PUBLIC "-//W3C//DTD SVG 20010904//EN"
 "http://www.w3.org/TR/2001/REC-SVG-20010904/DTD/svg10.dtd">
<svg version="1.0" xmlns="http://www.w3.org/2000/svg"
 width="4000.000000pt" height="4000.000000pt" viewBox="0 0 4000.000000 4000.000000"
 preserveAspectRatio="xMidYMid meet">
<metadata>
Created by potrace 1.14, written by Peter Selinger 2001-2017
</metadata>
<g transform="translate(0.000000,4000.000000) scale(0.100000,-0.100000)"
fill="#000000" stroke="none">
<path d="M19863 34730 c-702 -49 -1338 -219 -1958 -525 -1040 -512 -1865
-1340 -2380 -2390 -166 -339 -274 -626 -366 -981 -22 -87 -43 -161 -44 -162
-2 -2 -72 58 -157 135 -1035 936 -1940 1558 -2558 1761 -418 137 -714 123
-1016 -50 -767 -437 -1574 -1675 -2032 -3118 -136 -427 -252 -912 -323 -1343
-19 -120 -25 -140 -43 -147 -12 -5 -201 -68 -421 -140 -2988 -978 -5349 -2201
-6935 -3591 -200 -176 -577 -548 -733 -723 l-105 -118 -11 -77 c-73 -504 6
-1011 234 -1488 177 -370 414 -699 755 -1047 485 -496 1109 -951 1919 -1402
871 -485 2037 -979 3131 -1327 110 -35 203 -67 206 -70 12 -11 -599 -817 -846
-1117 -57 -69 -114 -149 -126 -177 -140 -314 85 -743 721 -1378 110 -110 271
-263 357 -339 86 -77 155 -143 152 -148 -3 -4 -13 -8 -23 -8 -10 0 -65 -14
-122 -31 -496 -146 -910 -412 -1246 -803 -177 -206 -362 -482 -464 -694 -298
-612 -247 -1367 128 -1933 84 -127 155 -213 275 -335 l89 -90 -11 -90 c-13
-115 -13 -393 0 -525 65 -649 335 -1235 818 -1772 351 -391 884 -769 1462
-1037 74 -34 138 -65 142 -69 5 -4 -881 -1660 -1968 -3681 -1087 -2021 -1979
-3681 -1981 -3688 -4 -9 282 -12 1412 -12 l1417 0 364 152 c200 83 364 156
364 161 0 5 -176 372 -390 815 -215 443 -389 811 -386 816 2 6 348 177 769
380 l764 369 -83 171 c-45 94 -220 454 -388 801 -168 346 -302 633 -298 636 4
4 327 161 717 349 391 188 713 345 717 349 4 3 -108 287 -248 630 -140 343
-254 629 -254 635 0 6 264 119 586 249 565 230 586 238 610 222 13 -8 24 -22
24 -31 0 -8 -288 -891 -641 -1962 -735 -2235 -1029 -3127 -1335 -4057 -119
-363 -219 -666 -221 -672 -4 -10 1169 -13 5846 -13 l5852 0 127 257 c70 142
163 342 207 445 44 104 82 188 85 188 3 0 41 -84 85 -188 44 -103 137 -303
207 -444 l127 -258 5911 0 c3250 0 5910 1 5910 3 0 1 -22 70 -50 152 -27 82
-49 149 -47 150 1 1 144 -67 317 -151 l315 -153 1424 -1 c1333 0 1423 1 1417
17 -4 9 -1485 2766 -3292 6126 -1807 3360 -3284 6110 -3282 6112 2 1 78 32
169 68 227 90 458 189 684 292 1231 561 2913 1739 3850 2696 503 513 723 880
702 1168 -7 99 -37 174 -101 253 -324 402 -494 622 -776 1004 l-161 218 223
76 c1267 437 2464 1006 3363 1600 490 324 844 608 1185 950 351 351 597 682
785 1055 166 328 260 638 296 972 14 136 6 529 -13 649 l-14 81 -104 119 c-58
65 -204 218 -325 339 -1283 1285 -3209 2444 -5700 3430 -433 171 -973 369
-1435 525 -102 35 -188 66 -192 69 -4 3 -18 80 -33 171 -230 1480 -830 2919
-1610 3860 -114 138 -345 370 -460 463 -198 160 -399 274 -561 319 -118 33
-377 32 -524 0 -363 -81 -765 -277 -1281 -623 -457 -307 -1031 -769 -1594
-1284 l-138 -126 -47 188 c-58 232 -86 323 -161 530 -336 921 -950 1755 -1733
2353 -775 592 -1678 948 -2647 1045 -183 19 -654 27 -826 15z m547 -430 c853
-41 1634 -276 2351 -706 586 -352 1136 -855 1463 -1339 74 -111 217 -347 212
-352 -2 -2 -59 24 -127 57 -104 52 -130 69 -159 108 -366 485 -930 972 -1500
1294 -595 337 -1239 543 -1955 625 -222 25 -790 25 -1013 0 -927 -105 -1760
-431 -2488 -974 -286 -213 -608 -515 -823 -770 -57 -68 -108 -123 -113 -123
-5 0 -64 -25 -130 -55 -67 -30 -123 -54 -124 -52 -5 4 142 233 212 328 197
275 479 568 789 822 838 687 1860 1084 2927 1136 225 11 264 12 478 1z m-8342
-2106 c275 -56 684 -254 1107 -537 339 -227 719 -522 1145 -888 201 -173 644
-573 686 -620 21 -23 22 -27 10 -140 l-11 -116 -170 160 c-1318 1240 -2412
1988 -3068 2098 -42 7 -74 16 -70 20 39 37 242 50 371 23z m16697 -20 c65 -28
240 -133 233 -139 -2 -2 -30 3 -63 11 -171 40 -414 3 -697 -108 -651 -253
-1615 -960 -2700 -1981 -96 -90 -160 -143 -162 -135 -3 7 -7 63 -11 125 l-6
111 198 185 c914 853 1725 1467 2328 1762 314 154 492 206 690 202 108 -3 127
-6 190 -33z m-17160 -1479 c185 -54 383 -159 588 -313 352 -264 759 -698 1146
-1221 l91 -124 -162 -33 c-881 -177 -1789 -389 -2681 -627 -21 -5 -40 -8 -42
-5 -6 5 67 428 105 613 123 597 283 1100 465 1470 106 215 124 241 182 260 67
21 195 13 308 -20z m17558 23 c50 -15 81 -61 188 -283 166 -344 304 -768 418
-1280 74 -332 162 -837 149 -850 -3 -4 -52 7 -109 24 -571 166 -1648 431
-2444 601 -181 39 -334 72 -339 73 -10 3 237 333 382 511 573 696 1097 1107
1532 1200 82 18 171 19 223 4z m-8003 -1418 c1463 -69 2787 -214 4335 -475
3900 -656 7555 -1839 10158 -3287 940 -523 1697 -1044 2397 -1651 171 -147
677 -644 734 -720 27 -36 29 -44 33 -160 l4 -122 -113 117 c-148 152 -333 327
-538 507 -1988 1741 -5317 3258 -9415 4291 -2329 587 -4690 968 -6945 1120
-659 44 -1781 63 -2405 41 -4346 -157 -9631 -1325 -13353 -2952 -540 -236
-1252 -579 -1677 -809 -1006 -545 -1861 -1122 -2548 -1722 -170 -148 -447
-408 -545 -512 -41 -43 -76 -76 -78 -73 -3 3 -1 59 4 126 l10 121 90 98 c143
154 463 465 632 613 1263 1106 3060 2113 5310 2977 3618 1388 8353 2351 12210
2482 320 11 1400 5 1700 -10z m-1313 -5257 c139 -252 236 -454 324 -671 29
-73 57 -131 62 -129 5 1 33 61 62 132 109 269 257 566 419 843 l37 62 82 0
c195 0 826 -28 1277 -56 2441 -151 4975 -607 6805 -1224 653 -221 1155 -459
1344 -638 44 -41 57 -65 111 -197 153 -374 489 -1003 910 -1705 98 -162 194
-329 215 -370 186 -370 439 -796 749 -1259 138 -206 343 -518 456 -695 177
-277 209 -321 232 -324 22 -3 63 -54 245 -300 256 -348 504 -672 690 -902 125
-154 134 -167 129 -200 -5 -37 -99 -232 -120 -249 -10 -9 -41 25 -131 141 -65
84 -120 155 -122 157 -2 3 -74 -65 -161 -150 -86 -85 -188 -183 -226 -217
l-68 -61 53 -24 c30 -13 132 -54 227 -92 94 -37 172 -71 172 -76 0 -16 -443
-454 -595 -589 -836 -742 -1877 -1471 -2834 -1985 -624 -334 -1558 -706 -2466
-980 -2783 -840 -6265 -1186 -9555 -950 -1737 126 -3318 379 -4789 768 l-274
72 -26 55 c-36 75 -35 180 3 300 82 265 97 327 103 425 10 174 -35 295 -151
410 -117 116 -242 171 -511 225 -231 47 -316 80 -374 146 -62 71 -83 140 -111
385 -23 200 -39 274 -80 375 -81 203 -223 331 -405 365 -108 20 -207 3 -414
-73 -149 -55 -220 -71 -252 -59 -16 5 -26 23 -36 62 -7 30 -29 86 -47 124 -88
184 -232 312 -431 381 -74 26 -92 28 -225 28 -130 0 -153 -3 -225 -27 -44 -14
-106 -42 -138 -62 l-59 -35 -76 78 c-94 95 -187 146 -302 163 -149 23 -266
-17 -503 -169 -208 -134 -222 -135 -358 -27 -161 129 -245 164 -396 166 -203
1 -363 -91 -455 -262 l-27 -50 -118 104 c-179 158 -394 365 -531 510 -67 71
-121 131 -120 132 2 1 102 42 223 90 121 48 222 89 225 92 2 2 -40 45 -95 96
-55 50 -157 147 -226 215 l-126 123 -116 -150 c-64 -82 -120 -152 -126 -155
-13 -8 -95 135 -122 214 l-22 65 187 233 c625 781 1600 2155 1963 2767 304
512 504 917 971 1966 259 580 414 914 439 941 67 75 429 267 758 403 1468 608
3875 1138 6275 1379 841 85 1872 149 2490 154 l176 2 131 -237z m-10474 -8959
c75 -49 134 -154 212 -374 61 -173 93 -245 150 -330 61 -92 140 -162 238 -210
128 -63 191 -72 497 -74 284 -2 327 -9 400 -58 77 -53 92 -136 71 -398 -22
-292 6 -445 111 -592 87 -121 191 -203 428 -338 184 -105 252 -153 323 -229
58 -63 87 -129 87 -195 -1 -55 -45 -158 -120 -281 -125 -206 -143 -238 -175
-315 -49 -116 -60 -172 -59 -305 1 -195 32 -289 213 -638 60 -117 125 -255
143 -307 31 -89 33 -103 33 -230 0 -102 -5 -149 -19 -195 -57 -185 -190 -348
-347 -423 -98 -47 -184 -71 -282 -79 l-70 -6 7 24 c226 809 274 1629 135 2324
-149 750 -506 1412 -1059 1966 -506 507 -1100 821 -1792 949 -109 20 -318 44
-485 55 -82 6 -92 9 -97 28 -31 117 54 227 176 227 60 0 87 -13 196 -99 110
-85 165 -117 238 -136 155 -40 290 1 522 159 174 118 241 135 325 80z m942
-122 c162 -77 255 -252 224 -427 -6 -36 -14 -65 -18 -65 -4 0 -25 34 -46 76
-45 91 -142 198 -212 237 -27 14 -84 36 -128 47 -97 27 -147 53 -168 90 l-16
27 38 18 c63 28 101 34 183 31 61 -3 92 -11 143 -34z m1221 -441 c69 -31 124
-130 153 -272 9 -44 41 -310 41 -339 0 -5 -37 9 -82 30 -98 45 -208 70 -313
70 -67 0 -75 2 -75 19 0 30 -66 152 -110 202 -45 53 -131 114 -199 140 l-46
18 35 1 c53 0 186 35 275 71 98 40 221 78 255 78 14 0 44 -8 66 -18z m-3284
-50 c894 -117 1587 -534 2164 -1304 339 -451 561 -1001 643 -1589 110 -785
-28 -1724 -377 -2558 -33 -80 -137 -308 -230 -506 -241 -510 -265 -585 -265
-829 -1 -344 133 -628 357 -759 363 -212 928 -49 1476 425 80 70 83 72 61 34
-243 -404 -482 -625 -768 -707 -112 -33 -320 -32 -446 1 -178 46 -336 122
-517 248 -78 55 -216 188 -791 767 l-697 700 86 34 c570 220 966 652 1106
1207 107 428 21 788 -262 1096 l-60 65 19 56 c39 117 52 231 46 428 -8 307
-37 450 -137 686 -88 209 -205 380 -363 530 -292 279 -684 414 -1207 414 -251
0 -434 -28 -655 -102 -638 -212 -1160 -746 -1391 -1424 -21 -60 -39 -111 -41
-114 -4 -5 -31 26 -110 129 -163 213 -279 500 -313 774 -18 143 -8 405 20 536
42 197 112 369 236 572 427 706 1004 1103 1750 1203 146 20 457 14 666 -13z
m3265 -836 c111 -50 205 -183 218 -310 11 -101 -22 -216 -84 -295 -19 -24 -19
-24 -53 -6 l-34 18 4 96 c7 144 -16 223 -94 332 -51 71 -77 135 -69 171 6 27
10 30 33 24 15 -3 51 -17 79 -30z m603 -275 c53 -27 189 -65 323 -91 377 -72
463 -163 392 -418 -10 -33 -20 -61 -24 -61 -3 0 -17 20 -30 45 -29 56 -88 110
-150 139 -43 20 -65 21 -329 24 -262 3 -283 4 -277 20 29 73 46 179 43 267 -2
52 1 95 5 95 4 0 25 -9 47 -20z m343 -722 c-11 -18 -68 -118 -129 -223 l-109
-190 -6 92 c-4 50 -15 116 -24 145 -18 56 -79 173 -95 183 -32 20 7 25 186 25
l196 0 -19 -32z m-4030 -102 c429 -81 704 -284 877 -650 77 -160 107 -258 124
-402 20 -160 20 -367 2 -455 -20 -93 -44 -133 -125 -214 -39 -38 -71 -72 -71
-76 0 -3 51 -45 114 -93 265 -200 381 -387 393 -631 11 -223 -75 -498 -229
-730 -102 -154 -296 -326 -490 -433 -143 -79 -378 -165 -614 -223 -71 -18
-131 -33 -133 -35 -1 -1 16 -188 39 -414 23 -226 40 -413 37 -416 -7 -8 -321
152 -457 233 -334 199 -566 378 -815 627 -451 452 -715 950 -812 1531 -14 86
-18 164 -18 360 0 217 3 267 24 380 62 346 198 672 388 930 84 114 293 324
401 403 220 163 483 272 759 317 119 19 483 14 606 -9z m4312 -358 c24 -73 76
-175 120 -234 20 -27 135 -146 254 -264 194 -191 222 -223 254 -287 45 -93 53
-138 33 -205 -23 -79 -63 -133 -230 -306 -175 -182 -211 -228 -265 -343 -57
-120 -75 -222 -68 -379 4 -69 11 -145 17 -169 10 -40 7 -55 -37 -185 l-47
-141 -12 92 c-15 106 -44 170 -102 227 l-41 39 25 37 c61 91 87 230 62 325
-13 49 -13 51 18 95 99 141 128 298 83 446 -23 76 -45 118 -97 182 -33 41 -34
45 -27 105 5 47 16 77 46 124 78 124 109 231 109 374 0 117 -22 199 -78 285
-39 60 -118 138 -160 157 -12 6 -21 15 -20 21 2 6 32 62 68 124 l65 114 6 -90
c4 -50 15 -115 24 -144z m-608 -513 c86 -43 144 -103 186 -193 28 -60 31 -77
31 -157 0 -59 -6 -105 -18 -135 -24 -65 -82 -145 -130 -181 -50 -37 -56 -26
-31 66 22 78 17 236 -9 309 -10 27 -42 85 -71 128 -57 82 -78 137 -69 175 8
31 29 29 111 -12z m4748 -670 c742 -81 1369 -129 2180 -167 368 -18 1976 -18
2335 0 766 37 1457 88 1986 146 71 8 130 14 131 13 1 -1 -218 -130 -485 -287
-268 -156 -586 -342 -707 -414 -121 -71 -672 -394 -1224 -717 -927 -543 -1005
-587 -1025 -574 -11 7 -496 291 -1076 631 -1218 713 -2358 1382 -2380 1395
-11 7 -8 8 10 4 14 -2 129 -16 255 -30z m10840 -52 c317 -85 560 -321 657
-635 l23 -73 3 -950 c3 -1055 4 -1032 -63 -1188 -50 -116 -92 -181 -174 -269
-89 -95 -168 -153 -282 -207 -98 -47 -171 -67 -289 -81 -116 -13 -2665 -13
-2785 0 -205 23 -376 104 -529 249 -125 121 -210 265 -252 429 l-24 95 0 933
c0 1014 -1 997 56 1142 121 306 395 523 722 571 31 5 687 8 1457 7 1398 -2
1400 -2 1480 -23z m-15235 -202 c-6 -23 -24 -56 -40 -75 -27 -30 -37 -34 -94
-38 -43 -4 -80 -14 -111 -31 l-46 -26 -8 22 c-7 19 -2 24 46 43 72 30 148 76
208 129 55 47 63 43 45 -24z m-120 -500 c0 -6 -24 -33 -52 -62 l-53 -51 -3 47
c-5 69 0 75 58 75 27 0 50 -4 50 -9z m113 -918 l48 -398 -45 -134 c-25 -74
-48 -136 -50 -139 -3 -2 -135 51 -294 119 l-288 124 4 106 c3 75 0 130 -13
190 -16 81 -16 84 2 96 10 7 142 107 293 222 151 115 280 209 285 210 6 1 30
-157 58 -396z m-969 -182 c44 -149 -13 -321 -138 -418 -49 -39 -54 -31 -31 57
30 117 13 306 -35 380 -8 12 6 17 83 30 51 9 95 13 99 10 3 -3 13 -29 22 -59z
m17574 -447 c34 -9 62 -20 62 -25 0 -34 -45 -161 -69 -194 -36 -51 -55 -117
-47 -169 5 -34 -28 -165 -189 -746 -107 -388 -198 -712 -201 -720 -6 -13 -7
-13 -11 0 -3 8 -79 150 -169 316 l-164 301 84 83 c190 185 320 430 367 693 6
34 13 171 16 303 l5 241 127 -33 c69 -19 154 -42 189 -50z m-17091 -228 c20
-19 46 -205 46 -331 1 -216 -51 -345 -195 -487 -151 -148 -280 -218 -493 -268
-211 -49 -494 -22 -734 70 l-79 31 -12 87 c-16 111 -7 234 24 344 20 67 193
458 211 477 2 2 37 -11 78 -28 102 -42 240 -65 340 -56 111 9 178 28 286 81
75 37 109 61 170 123 l76 76 135 -54 c74 -29 140 -58 147 -65z m998 -624 c81
-294 134 -506 129 -511 -12 -11 -806 -223 -812 -217 -2 3 18 42 46 88 159 266
308 611 443 1025 24 73 46 129 50 125 4 -4 69 -233 144 -510z m-4290 207 c-8
-23 -8 -23 -16 -4 -4 11 -8 29 -8 40 -1 18 0 18 15 3 11 -11 14 -23 9 -39z
m6488 -1125 c136 -499 246 -908 244 -910 -3 -4 -620 -173 -1725 -474 l-33 -9
31 57 c283 524 1226 2242 1230 2242 3 0 117 -408 253 -906z m11593 239 c-3
-10 -105 -380 -227 -823 -122 -443 -224 -810 -228 -816 -5 -9 -556 978 -869
1558 l-54 98 692 0 c654 0 691 -1 686 -17z m3814 -417 c453 -220 664 -328 662
-337 -4 -19 -666 -1387 -670 -1384 -2 1 -563 1707 -668 2028 -3 9 -2 17 3 16
4 0 307 -146 673 -323z m-13115 -1146 c133 -487 240 -888 236 -892 -6 -6
-1744 -490 -1746 -485 -1 2 1045 1908 1211 2207 29 51 49 79 52 70 3 -8 114
-413 247 -900z m6250 623 c435 -119 792 -218 794 -220 4 -3 -471 -1738 -488
-1786 -5 -13 -190 313 -639 1123 -348 627 -632 1142 -632 1144 0 2 39 -7 88
-20 48 -13 443 -122 877 -241z m-3979 -1931 c130 -480 234 -875 231 -878 -7
-7 -1731 -493 -1735 -489 -2 1 279 514 625 1139 462 838 630 1132 635 1119 4
-10 114 -411 244 -891z m1644 631 c465 -129 847 -237 849 -239 3 -2 -105 -404
-240 -894 -134 -489 -247 -886 -250 -882 -8 9 -1259 2254 -1259 2260 0 6 -11
9 900 -245z m9945 -268 c471 -228 729 -359 727 -367 -4 -16 -735 -1528 -738
-1525 -3 4 -734 2234 -734 2240 0 4 3 7 8 7 4 -1 336 -160 737 -355z m-15686
-1974 c-17 -137 -39 -424 -49 -641 -24 -517 -1 -1068 66 -1599 13 -106 24
-200 24 -207 0 -7 -76 42 -168 111 -440 323 -928 620 -1412 859 -164 81 -505
236 -584 266 -16 6 -27 12 -25 14 2 2 48 22 102 45 641 272 1331 678 1927
1134 69 53 126 95 127 94 1 -1 -2 -36 -8 -76z m8841 -48 c589 -446 1258 -837
1886 -1103 54 -23 101 -44 103 -46 2 -2 -9 -8 -25 -14 -79 -30 -420 -185 -584
-266 -484 -239 -972 -536 -1412 -859 -117 -86 -168 -119 -168 -107 0 9 9 82
20 162 90 675 103 1438 35 2145 -9 88 -18 173 -22 190 -5 24 -3 28 8 19 8 -6
79 -61 159 -121z m7645 -333 c413 -200 751 -364 753 -366 2 -1 -169 -358 -379
-793 -211 -435 -386 -787 -390 -783 -8 8 -759 2289 -759 2305 0 12 -73 46 775
-363z"/>
<path d="M15040 21600 c-1140 -79 -2051 -955 -2181 -2099 -17 -154 -7 -506 19
-651 45 -247 101 -419 212 -645 406 -831 1262 -1344 2190 -1312 96 3 222 13
279 22 701 109 1309 519 1676 1133 170 284 282 626 316 966 16 167 7 467 -20
621 -133 756 -596 1383 -1271 1721 -374 188 -800 273 -1220 244z m521 -704
c112 -24 194 -71 284 -161 128 -127 182 -265 172 -435 -12 -195 -105 -354
-268 -460 -86 -56 -167 -81 -279 -87 -168 -9 -319 47 -434 162 -183 183 -226
439 -114 674 43 90 167 214 261 260 120 58 250 74 378 47z m895 -1068 c68 -25
137 -71 172 -116 172 -218 103 -518 -143 -633 -276 -129 -595 93 -572 398 20
269 291 444 543 351z"/>
<path d="M25145 21604 c-575 -34 -1096 -256 -1508 -644 -201 -190 -371 -423
-498 -685 -116 -239 -182 -459 -220 -735 -20 -141 -17 -477 5 -625 155 -1039
949 -1838 1986 -2001 160 -25 539 -26 695 -1 507 81 931 291 1289 637 147 143
224 235 332 396 191 286 317 617 370 969 21 145 25 483 6 620 -84 606 -359
1119 -807 1503 -350 300 -811 503 -1255 551 -113 12 -311 20 -395 15z m489
-714 c110 -28 190 -74 271 -155 113 -113 169 -249 168 -410 -1 -159 -54 -286
-168 -401 -260 -264 -692 -221 -895 89 -94 143 -118 341 -61 504 99 286 395
447 685 373z m856 -1052 c91 -27 187 -102 234 -182 93 -159 66 -369 -65 -497
-203 -198 -529 -139 -656 119 -26 52 -28 67 -28 167 0 99 3 116 27 168 87 184
298 282 488 225z"/>
<path d="M20012 18736 c-338 -64 -591 -240 -690 -480 -30 -74 -41 -220 -22
-309 49 -237 300 -451 623 -533 l67 -16 0 -145 c0 -170 -16 -253 -70 -368
-120 -258 -358 -418 -640 -432 -217 -10 -402 61 -561 217 -130 128 -201 281
-221 474 -12 120 -28 158 -76 188 -49 30 -130 31 -169 2 -57 -42 -73 -79 -73
-169 0 -430 313 -849 733 -981 54 -17 58 -20 53 -44 -3 -14 -11 -94 -18 -177
-14 -176 -2 -375 33 -547 41 -206 138 -450 244 -614 l47 -73 38 65 c225 385
641 614 1028 566 326 -40 612 -232 810 -543 l55 -88 45 68 c171 264 265 569
287 933 6 95 -5 299 -21 398 -6 38 -6 38 38 51 153 46 314 144 439 270 184
186 291 422 306 676 7 117 -5 158 -59 198 -48 37 -104 44 -160 19 -66 -29 -88
-71 -98 -185 -11 -120 -25 -175 -70 -272 -92 -199 -256 -340 -470 -406 -60
-19 -98 -24 -190 -24 l-115 0 -180 74 -180 75 -75 76 c-88 89 -131 157 -173
277 -30 84 -32 97 -35 264 l-4 175 82 22 c435 117 691 445 605 776 -65 248
-321 456 -655 531 -102 23 -407 29 -508 11z"/>
</g>
</svg>
